# xmcd
#
# Track frame offsets:
#	150
#	13837
#	26409
#	43318
#	57506
#	70990
#	86223
#	100419
#	113551
#	126310
#	143598
#	158536
#	175741
#	189787
#	204568
#	217709
#	231901
#	247757
#	262563
#	277358
#	294307
#
# Disc length: 4116 seconds
#
# Revision: 0
# Processed by: cddbd v1.5.2PL0 Copyright (c) Steve Scherf et al.
# Submitted via: EZCDAudioConverter 4.0.5.1
#
DISCID=25101215
DTITLE=Various Artist - MULTI MUSIC HOTT COUNTRY # 285 CAN
DYEAR=2019
DGENRE=COUNTRY
TTITLE0=Sam Hunt\n - Kinfolks
TTITLE1=Dan and Shay and Justin Bieber\n - 10,000 Hours\n10,000 Hours
TTITLE2=Tebey and Marie Mai\n - The Good Ones
TTITLE3=Luke Bryan\n - What She Wants Tonight
TTITLE4=Jess Moskaluke\n - Country Girls
TTITLE5=Hootie and the Blowfish\n - Hold On
TTITLE6=Chris Lane\n - Big, Big Plans
TTITLE7=Dillon Carmichael\n - I Do For You
TTITLE8=Dallas Smith\n - Timeless
TTITLE9=LANco\n - What I See
TTITLE10=Jade Eagleson\n - Lucky
TTITLE11=Carrie Underwood\n - Drinking Alone
TTITLE12=Hunter Brothers\n - Silver Lining
TTITLE13=Lainey Wilson\n - Dirty Looks
TTITLE14=The Highwomen\n - Redesigning Women
TTITLE15=Runaway June\n - Head Over Heels
TTITLE16=Kira Isabella\n - Soon
TTITLE17=Mags\n - Emotional Honesty
TTITLE18=Jake Mathews\n - Finally Got It Right
TTITLE19=The Band Steele\n - Waitin' On Sunshine
TTITLE20=Alan Doyle ft. Dean Brody\n - We Don't Wanna Go Home
EXTD=
EXTT0=
EXTT1=
EXTT2=
EXTT3=
EXTT4=
EXTT5=
EXTT6=
EXTT7=
EXTT8=
EXTT9=
EXTT10=
EXTT11=
EXTT12=
EXTT13=
EXTT14=
EXTT15=
EXTT16=
EXTT17=
EXTT18=
EXTT19=
EXTT20=
PLAYORDER=
